<?xml version="1.0" standalone="no"?>
<!DOCTYPE svg PUBLIC "-//W3C//DTD SVG 20010904//EN"
 "http://www.w3.org/TR/2001/REC-SVG-20010904/DTD/svg10.dtd">
<svg version="1.0" xmlns="http://www.w3.org/2000/svg"
 width="512.000000pt" height="512.000000pt" viewBox="0 0 512.000000 512.000000"
 preserveAspectRatio="xMidYMid meet">
<metadata>
Created by potrace 1.14, written by Peter Selinger 2001-2017
</metadata>
<g transform="translate(0.000000,512.000000) scale(0.100000,-0.100000)"
fill="#000000" stroke="none">
<path d="M2260 5039 c-134 -15 -152 -20 -192 -61 -15 -15 -42 -30 -60 -33
-166 -27 -289 -61 -448 -124 -641 -250 -1188 -833 -1415 -1506 -32 -96 -53
-168 -61 -210 -2 -11 -10 -54 -18 -95 -33 -168 -41 -259 -41 -485 0 -232 8
-315 46 -515 100 -512 351 -1007 669 -1317 110 -107 376 -287 570 -384 119
-59 157 -75 250 -105 98 -32 175 -50 330 -74 36 -6 76 -13 90 -15 24 -4 74
-10 170 -20 193 -20 748 -27 930 -12 466 40 783 142 1094 352 113 75 135 93
241 193 252 240 478 673 571 1092 19 88 51 245 60 300 8 51 9 53 19 135 4 33
9 69 11 80 25 131 25 690 0 821 -3 12 -7 37 -10 55 -5 31 -19 105 -30 154 -54
256 -211 582 -397 827 -156 205 -390 411 -619 546 -310 182 -805 341 -1207
387 -27 3 -79 9 -118 14 -85 10 -346 10 -435 0z"/>
</g>
</svg>
